<svg xmlns="http://www.w3.org/2000/svg" viewBox="0 0 98.43 98.14"><g id="Capa_2" data-name="Capa 2"><g id="Capa_1-2" data-name="Capa 1"><path d="M76.78,83.37c-8.85,13-30.42,16.18-45.06,14.26,13.47-.15,35.15-3.29,39.51-18.55a20.5,20.5,0,0,0-8.11-22.49L11.42,21.34C4.56,16.66.4,9.68,1.34,0L69.85,46.71A26.47,26.47,0,0,1,76.78,83.37Z" style="fill:#c60052;fill-rule:evenodd"/><path d="M65.55,82.94a16.81,16.81,0,0,1-9.07,6.62l-.32-.22C62.59,83.62,61.09,74,53.83,69L10.65,39.57C4.75,35.55.36,29.23,0,17.85L61.12,59.52A16.92,16.92,0,0,1,65.55,82.94Z" style="fill:#c60052;fill-rule:evenodd"/><path d="M56.63,81.14A8.31,8.31,0,0,1,53.4,87l-.33.26L19.21,64.19C6.9,55.8,4.82,48.41,3.29,38.87L51.82,72A10.35,10.35,0,0,1,56.63,81.14Z" style="fill:#c60052;fill-rule:evenodd"/><path d="M63.53,14.55c-.52,10.06,4,15.39,14.46,19A34.74,34.74,0,0,1,98,51.42,25.55,25.55,0,0,0,91,28.71C82.83,20.75,69.25,22.22,63.53,14.55Z" style="fill:#c60052;fill-rule:evenodd"/><path d="M75.15,36.32C61,33.81,79.68,49.87,79.68,49.87,83.19,47,89,45.76,93.34,47.69A27.39,27.39,0,0,0,75.15,36.32Z" style="fill:#c60052;fill-rule:evenodd"/></g></g></svg>