<svg xmlns="http://www.w3.org/2000/svg" viewBox="0 0 240.73 240.03"><g id="Capa_2" data-name="Capa 2"><g id="Capa_1-2" data-name="Capa 1"><path d="M187.78,203.89c-21.65,31.74-74.39,39.57-110.21,34.9,33-.38,86-8.06,96.63-45.39a50.11,50.11,0,0,0-19.84-55L27.94,52.19C11.15,40.75,1,23.67,3.28,0L170.83,114.25A64.7,64.7,0,0,1,187.78,203.89Z" style="fill:#c60052;fill-rule:evenodd"/><path d="M160.3,202.84A41,41,0,0,1,138.12,219l-.78-.54c15.73-14,12.07-37.59-5.68-49.7l-105.61-72C11.62,86.94.88,71.49,0,43.64L149.47,145.57A41.34,41.34,0,0,1,160.3,202.84Z" style="fill:#c60052;fill-rule:evenodd"/><path d="M138.51,198.45a20.36,20.36,0,0,1-7.92,14.34l-.81.65L47,157C16.88,136.46,11.8,118.39,8.05,95.06L126.75,176C134.07,181,139.27,189.38,138.51,198.45Z" style="fill:#c60052;fill-rule:evenodd"/><path d="M155.38,35.58c-1.27,24.61,9.82,37.64,35.36,46.47a85,85,0,0,1,48.92,43.7c3.8-19.84-2.66-41.61-17-55.53C202.58,50.74,169.36,54.35,155.38,35.58Z" style="fill:#c60052;fill-rule:evenodd"/><path d="M183.79,88.83C149.14,82.7,194.87,122,194.87,122c8.59-7.08,22.77-10,33.4-5.34C217.12,101.5,202.91,92.14,183.79,88.83Z" style="fill:#c60052;fill-rule:evenodd"/></g></g></svg>